<?xml version="1.0" encoding="utf-8"?>
<!-- Generator: Adobe Illustrator 15.1.0, SVG Export Plug-In . SVG Version: 6.00 Build 0)  -->
<!DOCTYPE svg PUBLIC "-//W3C//DTD SVG 1.1//EN" "http://www.w3.org/Graphics/SVG/1.1/DTD/svg11.dtd">
<svg version="1.1" id="Layer_1" xmlns="http://www.w3.org/2000/svg" xmlns:xlink="http://www.w3.org/1999/xlink" x="0px" y="0px"
	 width="125px" height="150px" viewBox="0 0 125 150" enable-background="new 0 0 125 150" xml:space="preserve">
<g opacity="0.5">
	<g>
		<g enable-background="new    ">
			<defs>
				<polygon id="SVGID_1_" enable-background="new    " points="17.3,95.251 17.564,1.502 98.438,48.198 98.173,141.947 				"/>
			</defs>
			<clipPath id="SVGID_2_">
				<use xlink:href="#SVGID_1_"  overflow="visible"/>
			</clipPath>
			<g clip-path="url(#SVGID_2_)">
				<g>
					<g>
						<g>
							<path d="M98.222,124.831l-0.709-0.409l-0.021,7.336l0.708,0.409L98.222,124.831 M98.245,116.679l-0.709-0.409l-0.021,7.337
								l0.708,0.409L98.245,116.679 M98.27,107.713l-0.709-0.409l-0.023,8.151l0.709,0.409L98.27,107.713 M98.293,99.555
								l-0.709-0.409l-0.021,7.337l0.708,0.409L98.293,99.555 M98.316,91.404l-0.709-0.409l-0.021,7.337l0.708,0.409L98.316,91.404
								 M98.339,83.253l-0.709-0.409l-0.021,7.337l0.709,0.409L98.339,83.253 M98.364,74.287l-0.709-0.409l-0.023,8.151l0.709,0.409
								L98.364,74.287 M98.387,66.136l-0.709-0.409l-0.021,7.337l0.708,0.409L98.387,66.136 M98.41,57.985l-0.709-0.409
								l-0.021,7.337l0.709,0.409L98.41,57.985 M98.438,48.198L17.564,1.502L17.3,95.251l80.874,46.696l0.025-8.966l-0.709-0.409
								l-0.023,8.151L18.011,94.846l0.023-8.151l-0.709-0.409l0.002-0.814l0.709,0.409l0.021-7.337l-0.709-0.409l0.002-0.814
								l0.708,0.409l0.021-7.337l-0.708-0.409l0.002-0.814l0.709,0.409l0.023-8.151l-0.709-0.409l0.002-0.822l0.709,0.409
								l0.021-7.337l-0.709-0.409l0.002-0.814l0.709,0.409l0.021-7.337l-0.708-0.409l0.002-0.814l0.709,0.409l0.021-7.337
								l-0.708-0.409l0.002-0.814l0.709,0.409l0.023-8.151l-0.709-0.409l0.002-0.814l0.709,0.409l0.021-7.337l-0.708-0.409
								l0.002-0.814l0.709,0.409l0.021-7.337l-0.708-0.409l0.002-0.814l0.709,0.409l0.023-8.151l6.385,3.686l0.708,0.409
								l6.385,3.687l0.708,0.409l7.093,4.096l0.715,0.413l6.385,3.686l0.708,0.409l6.385,3.687l0.709,0.409l7.093,4.096l0.708,0.409
								l6.385,3.687l0.708,0.409l6.385,3.686l0.708,0.409l7.093,4.096l0.709,0.409l6.384,3.687l0.715,0.413l6.384,3.686
								l-0.023,8.151l0.709,0.409L98.438,48.198"/>
							<path d="M24.42,89.567l-6.384-3.687l-0.709-0.409l-0.002,0.814l0.709,0.409l6.384,3.687L24.42,89.567 M31.514,93.663
								l-6.385-3.686l-0.002,0.814l6.385,3.686L31.514,93.663 M39.316,98.167l-7.093-4.095l-0.002,0.814l7.093,4.096L39.316,98.167
								 M46.416,102.267l-6.385-3.686l-0.002,0.814l6.385,3.687L46.416,102.267 M53.509,106.362l-6.385-3.687l-0.002,0.814
								l6.385,3.687L53.509,106.362 M61.311,110.867l-7.093-4.096l-0.002,0.814l7.094,4.096L61.311,110.867 M68.404,114.963
								l-6.384-3.687l-0.002,0.814l6.385,3.687L68.404,114.963 M75.497,119.059l-6.384-3.687l-0.002,0.814l6.385,3.687
								L75.497,119.059 M83.299,123.563l-7.093-4.095l-0.002,0.814l7.093,4.095L83.299,123.563 M90.393,127.659l-6.385-3.686
								l-0.002,0.814l6.384,3.687L90.393,127.659 M98.201,132.167l-0.708-0.409l-6.385-3.686l-0.002,0.814l6.384,3.687l0.709,0.409
								L98.201,132.167"/>
							<path d="M24.443,81.416l-6.385-3.687L17.35,77.32l-0.002,0.814l0.709,0.409l6.385,3.687L24.443,81.416 M31.537,85.512
								l-6.384-3.687L25.15,82.64l6.385,3.687L31.537,85.512 M39.339,90.017l-7.093-4.096l-0.002,0.814l7.093,4.096L39.339,90.017
								 M46.438,94.116l-6.385-3.687l-0.002,0.814l6.385,3.687L46.438,94.116 M53.532,98.211l-6.385-3.686l-0.002,0.814l6.385,3.686
								L53.532,98.211 M61.333,102.716L54.24,98.62l-0.002,0.814l7.093,4.096L61.333,102.716 M68.427,106.812l-6.384-3.687
								l-0.002,0.814l6.385,3.687L68.427,106.812 M75.521,110.907l-6.385-3.687l-0.002,0.814l6.385,3.687L75.521,110.907
								 M83.322,115.412l-7.093-4.096l-0.002,0.814l7.093,4.096L83.322,115.412 M90.416,119.508l-6.384-3.687l-0.002,0.814
								l6.384,3.687L90.416,119.508 M98.224,124.016l-0.708-0.409l-6.385-3.687l-0.002,0.814l6.384,3.687l0.709,0.409
								L98.224,124.016"/>
							<path d="M24.466,73.265l-6.384-3.687l-0.709-0.409l-0.002,0.814l0.708,0.409l6.385,3.687L24.466,73.265 M31.56,77.36
								l-6.384-3.687l-0.002,0.814l6.385,3.687L31.56,77.36 M39.362,81.865l-7.093-4.096l-0.002,0.814l7.093,4.096L39.362,81.865
								 M46.461,85.964l-6.385-3.687l-0.002,0.814l6.385,3.687L46.461,85.964 M53.555,90.06l-6.385-3.687l-0.002,0.814l6.384,3.687
								L53.555,90.06 M61.356,94.565l-7.093-4.096l-0.002,0.814l7.093,4.095L61.356,94.565 M68.45,98.66l-6.385-3.686l-0.002,0.814
								l6.385,3.686L68.45,98.66 M75.543,102.756l-6.385-3.687l-0.002,0.814l6.385,3.687L75.543,102.756 M83.345,107.261
								l-7.093-4.096l-0.002,0.814l7.093,4.096L83.345,107.261 M90.438,111.356l-6.385-3.687l-0.002,0.814l6.385,3.687
								L90.438,111.356 M98.247,115.865l-0.709-0.409l-6.385-3.687l-0.002,0.814l6.384,3.687l0.709,0.409L98.247,115.865"/>
							<path d="M24.492,64.292l-6.384-3.687l-0.709-0.409l-0.002,0.822l0.709,0.409l6.384,3.687L24.492,64.292 M31.585,68.388
								l-6.384-3.687l-0.002,0.822l6.385,3.686L31.585,68.388 M39.387,72.893l-7.093-4.096l-0.002,0.821l7.093,4.096L39.387,72.893
								 M46.487,76.992l-6.385-3.687L40.1,74.127l6.385,3.686L46.487,76.992 M53.58,81.087l-6.385-3.687l-0.002,0.821l6.385,3.687
								L53.58,81.087 M61.382,85.592l-7.093-4.095l-0.002,0.821l7.094,4.096L61.382,85.592 M68.475,89.688l-6.384-3.687
								l-0.002,0.822l6.385,3.687L68.475,89.688 M75.568,93.783l-6.384-3.687l-0.002,0.822l6.385,3.687L75.568,93.783
								 M83.371,98.288l-7.093-4.096l-0.002,0.822l7.093,4.095L83.371,98.288 M90.464,102.384l-6.385-3.687l-0.002,0.821
								l6.384,3.687L90.464,102.384 M98.272,106.892l-0.708-0.409l-6.385-3.687l-0.002,0.822l6.384,3.686l0.709,0.409
								L98.272,106.892"/>
							<path d="M24.515,56.141l-6.384-3.686l-0.709-0.409l-0.002,0.814l0.709,0.409l6.385,3.687L24.515,56.141 M31.608,60.236
								l-6.384-3.687l-0.002,0.814l6.385,3.687L31.608,60.236 M39.41,64.741l-7.093-4.096l-0.002,0.814l7.093,4.096L39.41,64.741
								 M46.51,68.84l-6.385-3.687l-0.002,0.814l6.385,3.687L46.51,68.84 M53.603,72.936l-6.385-3.687l-0.002,0.814l6.385,3.687
								L53.603,72.936 M61.405,77.441l-7.093-4.096L54.31,74.16l7.093,4.096L61.405,77.441 M68.498,81.536l-6.384-3.686
								l-0.002,0.814l6.385,3.686L68.498,81.536 M75.592,85.632l-6.385-3.686l-0.002,0.814l6.385,3.687L75.592,85.632
								 M83.394,90.137L76.3,86.041l-0.002,0.814l7.093,4.096L83.394,90.137 M90.487,94.232l-6.384-3.687L84.1,91.36l6.384,3.687
								L90.487,94.232 M98.295,98.741l-0.708-0.409l-6.385-3.687L91.2,95.459l6.384,3.687l0.709,0.409L98.295,98.741"/>
							<path d="M24.538,47.99l-6.384-3.687l-0.709-0.409l-0.002,0.814l0.708,0.409l6.385,3.687L24.538,47.99 M31.631,52.085
								l-6.384-3.686l-0.002,0.814l6.385,3.686L31.631,52.085 M39.433,56.59l-7.093-4.096l-0.002,0.814l7.093,4.096L39.433,56.59
								 M46.533,60.689l-6.385-3.687l-0.002,0.814l6.385,3.686L46.533,60.689 M53.626,64.785l-6.385-3.686l-0.002,0.814l6.384,3.687
								L53.626,64.785 M61.428,69.29l-7.093-4.096l-0.002,0.814l7.093,4.096L61.428,69.29 M68.521,73.385l-6.385-3.687l-0.002,0.814
								l6.385,3.687L68.521,73.385 M75.615,77.481l-6.385-3.687l-0.002,0.814l6.385,3.687L75.615,77.481 M83.417,81.985
								l-7.093-4.095l-0.002,0.814l7.093,4.095L83.417,81.985 M90.51,86.081l-6.384-3.687l-0.002,0.814l6.385,3.687L90.51,86.081
								 M98.318,90.59l-0.709-0.409l-6.385-3.687l-0.002,0.814l6.384,3.686l0.709,0.409L98.318,90.59"/>
							<path d="M24.561,39.838l-6.384-3.687l-0.709-0.409l-0.002,0.814l0.708,0.409l6.385,3.687L24.561,39.838 M31.654,43.934
								l-6.385-3.687l-0.002,0.814l6.385,3.687L31.654,43.934 M39.456,48.439l-7.093-4.096l-0.002,0.814l7.093,4.095L39.456,48.439
								 M46.556,52.538l-6.385-3.687l-0.002,0.814l6.384,3.687L46.556,52.538 M53.649,56.634l-6.385-3.687l-0.002,0.814l6.384,3.687
								L53.649,56.634 M61.451,61.139l-7.094-4.096l-0.002,0.814l7.093,4.095L61.451,61.139 M68.544,65.234l-6.385-3.686
								l-0.002,0.814l6.385,3.687L68.544,65.234 M75.638,69.33l-6.385-3.687l-0.002,0.814l6.385,3.687L75.638,69.33 M83.439,73.834
								l-7.093-4.096l-0.002,0.814l7.094,4.096L83.439,73.834 M90.533,77.93l-6.384-3.687l-0.002,0.814l6.385,3.686L90.533,77.93
								 M98.341,82.438l-0.709-0.409l-6.384-3.687l-0.002,0.814l6.384,3.687l0.709,0.409L98.341,82.438"/>
							<path d="M24.586,30.873l-6.384-3.687l-0.709-0.409l-0.002,0.814l0.709,0.409l6.385,3.686L24.586,30.873 M31.679,34.968
								l-6.384-3.686l-0.002,0.814l6.385,3.687L31.679,34.968 M39.481,39.473l-7.093-4.096l-0.002,0.814l7.093,4.096L39.481,39.473
								 M46.581,43.572l-6.385-3.687L40.194,40.7l6.385,3.687L46.581,43.572 M53.674,47.668l-6.385-3.687l-0.002,0.814l6.385,3.687
								L53.674,47.668 M61.476,52.173l-7.093-4.096l-0.002,0.814l7.093,4.096L61.476,52.173 M68.569,56.269l-6.384-3.687
								l-0.002,0.814l6.385,3.687L68.569,56.269 M75.663,60.364l-6.385-3.687l-0.002,0.814l6.385,3.686L75.663,60.364
								 M83.465,64.869l-7.093-4.095l-0.002,0.814l7.093,4.096L83.465,64.869 M90.558,68.964l-6.384-3.687l-0.002,0.814l6.384,3.687
								L90.558,68.964 M98.366,73.473l-0.708-0.409l-6.385-3.687l-0.002,0.814l6.384,3.687l0.709,0.409L98.366,73.473"/>
							<path d="M24.609,22.722l-6.384-3.687l-0.709-0.409l-0.002,0.814l0.708,0.409l6.385,3.687L24.609,22.722 M31.702,26.817
								l-6.384-3.687l-0.002,0.814l6.385,3.687L31.702,26.817 M39.504,31.322l-7.093-4.096l-0.002,0.814l7.093,4.095L39.504,31.322
								 M46.604,35.421l-6.385-3.687l-0.002,0.814l6.385,3.686L46.604,35.421 M53.697,39.517l-6.385-3.686l-0.002,0.814l6.384,3.687
								L53.697,39.517 M61.499,44.021l-7.093-4.096l-0.002,0.814l7.093,4.096L61.499,44.021 M68.593,48.117l-6.385-3.687
								l-0.002,0.814l6.385,3.687L68.593,48.117 M75.686,52.213l-6.385-3.687l-0.002,0.814l6.385,3.687L75.686,52.213
								 M83.488,56.718l-7.093-4.096l-0.002,0.814l7.093,4.096L83.488,56.718 M90.581,60.813l-6.384-3.686l-0.002,0.814l6.385,3.686
								L90.581,60.813 M98.39,65.322l-0.709-0.409l-6.385-3.687l-0.002,0.814l6.384,3.686l0.709,0.409L98.39,65.322"/>
							<path d="M24.632,14.57l-6.384-3.687l-0.709-0.409l-0.002,0.814l0.708,0.409l6.385,3.687L24.632,14.57 M31.726,18.666
								l-6.385-3.687l-0.002,0.814l6.385,3.687L31.726,18.666 M39.527,23.171l-7.093-4.096l-0.002,0.814l7.093,4.096L39.527,23.171
								 M46.627,27.27l-6.385-3.687l-0.002,0.814l6.384,3.687L46.627,27.27 M53.72,31.366l-6.385-3.687l-0.002,0.814l6.384,3.687
								L53.72,31.366 M61.522,35.87l-7.094-4.095l-0.002,0.814l7.093,4.095L61.522,35.87 M68.616,39.966l-6.385-3.686l-0.002,0.814
								l6.385,3.687L68.616,39.966 M75.709,44.062l-6.385-3.687l-0.002,0.814l6.385,3.687L75.709,44.062 M83.511,48.566
								l-7.093-4.096l-0.002,0.814l7.094,4.096L83.511,48.566 M90.604,52.662l-6.384-3.687l-0.002,0.814l6.385,3.687L90.604,52.662
								 M98.413,57.17l-0.709-0.409l-6.384-3.687l-0.002,0.814l6.384,3.687l0.709,0.409L98.413,57.17"/>
							<polyline points="91.342,44.924 90.627,44.511 90.604,52.662 90.602,53.477 90.581,60.813 90.579,61.627 90.558,68.964 
								90.556,69.779 90.533,77.93 90.531,78.744 90.51,86.081 90.508,86.896 90.487,94.232 90.484,95.047 90.464,102.384 
								90.461,103.205 90.438,111.356 90.437,112.171 90.416,119.508 90.413,120.322 90.393,127.659 90.39,128.473 90.367,136.625 
								91.082,137.037 91.105,128.886 91.107,128.072 91.128,120.735 91.13,119.92 91.151,112.583 91.153,111.769 91.177,103.618 
								91.179,102.796 91.2,95.459 91.202,94.645 91.223,87.309 91.225,86.494 91.246,79.157 91.248,78.343 91.271,70.191 
								91.273,69.377 91.294,62.041 91.296,61.226 91.317,53.889 91.319,53.075 91.342,44.924 							"/>
							<polyline points="84.243,40.824 83.534,40.415 83.511,48.566 83.509,49.381 83.488,56.718 83.485,57.532 83.465,64.869 
								83.462,65.683 83.439,73.834 83.438,74.649 83.417,81.985 83.414,82.8 83.394,90.137 83.391,90.951 83.371,98.288 
								83.368,99.109 83.345,107.261 83.343,108.075 83.322,115.412 83.32,116.227 83.299,123.563 83.297,124.377 83.274,132.529 
								83.982,132.938 84.006,124.787 84.008,123.973 84.029,116.636 84.031,115.821 84.052,108.484 84.054,107.67 84.077,99.519 
								84.079,98.697 84.1,91.36 84.103,90.546 84.123,83.209 84.125,82.395 84.146,75.058 84.148,74.244 84.171,66.092 
								84.174,65.278 84.194,57.941 84.197,57.127 84.217,49.79 84.22,48.976 84.243,40.824 							"/>
							<polyline points="76.44,36.319 75.732,35.91 75.709,44.062 75.707,44.876 75.686,52.213 75.684,53.027 75.663,60.364 
								75.661,61.178 75.638,69.33 75.635,70.144 75.615,77.481 75.612,78.295 75.592,85.632 75.589,86.446 75.568,93.783 
								75.566,94.605 75.543,102.756 75.541,103.57 75.521,110.907 75.518,111.722 75.497,119.059 75.495,119.873 75.472,128.024 
								76.181,128.433 76.204,120.282 76.206,119.468 76.227,112.131 76.229,111.316 76.25,103.979 76.252,103.165 76.275,95.014 
								76.277,94.192 76.298,86.855 76.3,86.041 76.321,78.705 76.323,77.89 76.344,70.553 76.346,69.739 76.369,61.587 
								76.372,60.773 76.392,53.437 76.395,52.622 76.415,45.285 76.417,44.471 76.44,36.319 							"/>
							<polyline points="69.347,32.224 68.639,31.815 68.616,39.966 68.613,40.78 68.593,48.117 68.59,48.932 68.569,56.269 
								68.567,57.083 68.544,65.234 68.542,66.048 68.521,73.385 68.519,74.2 68.498,81.536 68.496,82.351 68.475,89.688 
								68.473,90.509 68.45,98.66 68.448,99.475 68.427,106.812 68.425,107.626 68.404,114.963 68.402,115.777 68.379,123.928 
								69.087,124.337 69.11,116.187 69.113,115.372 69.133,108.035 69.136,107.221 69.156,99.884 69.159,99.069 69.182,90.918 
								69.184,90.097 69.205,82.76 69.207,81.946 69.228,74.609 69.23,73.794 69.25,66.458 69.253,65.643 69.276,57.492 
								69.278,56.678 69.299,49.341 69.301,48.526 69.322,41.189 69.324,40.375 69.347,32.224 							"/>
							<polyline points="62.254,28.128 61.545,27.719 61.522,35.87 61.52,36.685 61.499,44.021 61.497,44.836 61.476,52.173 
								61.474,52.987 61.451,61.139 61.449,61.953 61.428,69.29 61.426,70.104 61.405,77.441 61.403,78.255 61.382,85.592 
								61.38,86.414 61.356,94.565 61.354,95.379 61.333,102.716 61.332,103.53 61.311,110.867 61.309,111.682 61.285,119.833 
								61.994,120.242 62.017,112.091 62.02,111.276 62.04,103.939 62.042,103.125 62.063,95.789 62.065,94.974 62.088,86.823 
								62.091,86.001 62.111,78.665 62.114,77.85 62.134,70.513 62.137,69.699 62.157,62.362 62.16,61.548 62.183,53.396 
								62.185,52.582 62.206,45.245 62.208,44.431 62.229,37.094 62.231,36.28 62.254,28.128 							"/>
							<polyline points="54.452,23.624 53.743,23.214 53.72,31.366 53.718,32.18 53.697,39.517 53.695,40.331 53.674,47.668 
								53.672,48.482 53.649,56.634 53.646,57.448 53.626,64.785 53.624,65.599 53.603,72.936 53.601,73.75 53.58,81.087 
								53.578,81.909 53.555,90.06 53.552,90.875 53.532,98.211 53.529,99.025 53.509,106.362 53.506,107.177 53.483,115.328 
								54.192,115.737 54.215,107.586 54.217,106.771 54.238,99.435 54.24,98.62 54.261,91.284 54.263,90.469 54.286,82.318 
								54.289,81.497 54.31,74.16 54.312,73.345 54.333,66.008 54.334,65.194 54.355,57.857 54.357,57.043 54.381,48.892 
								54.383,48.077 54.404,40.74 54.406,39.926 54.427,32.589 54.429,31.775 54.452,23.624 							"/>
							<polyline points="47.358,19.528 46.65,19.119 46.627,27.27 46.625,28.084 46.604,35.421 46.602,36.235 46.581,43.572 
								46.579,44.387 46.556,52.538 46.553,53.353 46.533,60.689 46.53,61.503 46.51,68.84 46.507,69.655 46.487,76.992 
								46.484,77.813 46.461,85.964 46.459,86.779 46.438,94.116 46.436,94.93 46.416,102.267 46.413,103.081 46.39,111.232 
								47.099,111.642 47.122,103.49 47.124,102.676 47.145,95.339 47.147,94.525 47.168,87.188 47.17,86.374 47.193,78.222 
								47.195,77.401 47.216,70.064 47.218,69.25 47.239,61.913 47.241,61.099 47.262,53.762 47.264,52.947 47.287,44.796 
								47.29,43.981 47.311,36.645 47.312,35.831 47.333,28.494 47.335,27.679 47.358,19.528 							"/>
							<polyline points="40.265,15.433 39.55,15.02 39.527,23.171 39.525,23.985 39.504,31.322 39.502,32.136 39.481,39.473 
								39.479,40.288 39.456,48.439 39.454,49.253 39.433,56.59 39.431,57.404 39.41,64.741 39.408,65.556 39.387,72.893 
								39.385,73.714 39.362,81.865 39.359,82.68 39.339,90.017 39.336,90.831 39.316,98.167 39.313,98.982 39.291,107.133 
								40.005,107.546 40.028,99.395 40.031,98.581 40.051,91.244 40.054,90.429 40.074,83.092 40.077,82.278 40.1,74.127 
								40.102,73.305 40.123,65.968 40.125,65.154 40.146,57.817 40.148,57.003 40.169,49.666 40.171,48.852 40.194,40.7 
								40.196,39.886 40.217,32.549 40.219,31.735 40.24,24.398 40.242,23.583 40.265,15.433 							"/>
							<polyline points="32.457,10.924 31.749,10.515 31.726,18.666 31.723,19.48 31.702,26.817 31.7,27.632 31.679,34.968 
								31.677,35.783 31.654,43.934 31.652,44.749 31.631,52.085 31.629,52.899 31.608,60.236 31.606,61.051 31.585,68.388 
								31.583,69.209 31.56,77.36 31.558,78.175 31.537,85.512 31.535,86.326 31.514,93.663 31.512,94.477 31.488,102.628 
								32.197,103.038 32.22,94.886 32.223,94.072 32.243,86.735 32.246,85.921 32.266,78.584 32.269,77.77 32.292,69.618 
								32.294,68.797 32.314,61.46 32.317,60.646 32.337,53.309 32.34,52.494 32.36,45.158 32.363,44.343 32.386,36.192 
								32.388,35.377 32.409,28.041 32.411,27.227 32.432,19.89 32.434,19.075 32.457,10.924 							"/>
							<polyline points="25.364,6.828 24.655,6.419 24.632,14.57 24.63,15.385 24.609,22.722 24.607,23.536 24.586,30.873 
								24.584,31.687 24.561,39.838 24.559,40.653 24.538,47.99 24.536,48.804 24.515,56.141 24.513,56.955 24.492,64.292 
								24.489,65.114 24.466,73.265 24.464,74.079 24.443,81.416 24.441,82.23 24.42,89.567 24.418,90.382 24.395,98.533 
								25.104,98.942 25.127,90.791 25.129,89.977 25.15,82.64 25.152,81.825 25.173,74.488 25.175,73.674 25.198,65.523 
								25.201,64.701 25.221,57.364 25.224,56.55 25.244,49.213 25.247,48.399 25.267,41.062 25.27,40.248 25.292,32.096 
								25.295,31.282 25.315,23.945 25.318,23.131 25.338,15.794 25.341,14.979 25.364,6.828 							"/>
						</g>
					</g>
				</g>
			</g>
		</g>
	</g>
</g>
<g>
	<g>
		<g enable-background="new    ">
			<defs>
				<polygon id="SVGID_3_" enable-background="new    " points="22.711,87.563 22.923,12.567 91.028,51.89 90.816,126.886 				"/>
			</defs>
			<clipPath id="SVGID_4_">
				<use xlink:href="#SVGID_3_"  overflow="visible"/>
			</clipPath>
			<g clip-path="url(#SVGID_4_)">
				<g>
					<g>
						<g>
							<path fill="#F2F2F2" d="M81.155,47.005L32.792,19.081c-5.05-2.916-9.175-0.756-9.19,4.82L23.45,77.356
								c-0.016,5.495,3.995,12.125,9.134,15.092l48.363,27.924c5.133,2.964,9.168,0.98,9.183-4.515l0.151-53.456
								C90.298,56.825,86.205,49.921,81.155,47.005"/>
							<path fill="#7AC943" d="M32.584,92.448c-5.14-2.967-9.15-9.597-9.134-15.092L23.601,23.9c0.016-5.576,4.14-7.736,9.19-4.82
								l48.363,27.924c5.05,2.916,9.143,9.82,9.127,15.396l-0.151,53.456c-0.015,5.495-4.05,7.479-9.183,4.515L32.584,92.448
								 M81.157,46.19L32.794,18.266c-5.446-3.145-9.885-0.798-9.901,5.225l-0.151,53.456c-0.017,5.958,4.305,13.119,9.84,16.315
								l48.363,27.924c5.536,3.196,9.884,1.041,9.901-4.917l0.151-53.456C91.014,56.791,86.597,49.331,81.157,46.19"/>
						</g>
					</g>
				</g>
			</g>
		</g>
	</g>
</g>
<g>
	<g>
		<g enable-background="new    ">
			<defs>
				<polygon id="SVGID_5_" enable-background="new    " points="32.46,79.97 32.612,26 85.771,56.693 85.618,110.663 				"/>
			</defs>
			<clipPath id="SVGID_6_">
				<use xlink:href="#SVGID_5_"  overflow="visible"/>
			</clipPath>
			<g clip-path="url(#SVGID_6_)">
				<g>
					<g>
						<g>
							<path fill="#FF1D25" d="M35.842,28.123c-1.736-1.003-3.138-0.57-3.145,1.682c-0.005,1.878,1.012,3.892,2.998,5.038
								c0.689,0.398,1.232,0.558,1.463,0.558l-0.182-1.273c-0.268-0.03-0.69-0.186-1.092-0.418c-1.149-0.664-1.824-1.883-1.82-3.204
								c0.004-1.468,0.804-1.719,1.826-1.129c0.466,0.269,0.83,0.59,1.085,0.869l0.278-1.016
								C37.023,28.951,36.512,28.509,35.842,28.123"/>
							<path fill="#FF1D25" d="M40.056,30.556c-1.347-0.778-2.173-0.403-2.176,0.72c-0.002,0.961,0.628,1.928,1.578,2.874
								c0.689,0.669,0.957,1.059,0.956,1.47c-0.001,0.433-0.315,0.531-0.909,0.188c-0.556-0.321-1.098-0.839-1.436-1.24
								l-0.271,1.071c0.325,0.393,0.969,0.971,1.627,1.351c1.571,0.907,2.308,0.392,2.311-0.716
								c0.003-0.924-0.462-1.802-1.476-2.821c-0.746-0.754-1.059-1.118-1.057-1.537c0.001-0.337,0.27-0.483,0.832-0.159
								c0.556,0.32,0.97,0.751,1.193,1.005l0.291-1.03C41.179,31.351,40.707,30.932,40.056,30.556"/>
							<path fill="#FF1D25" d="M44.653,33.209c-1.347-0.778-2.173-0.402-2.176,0.72c-0.003,0.961,0.627,1.928,1.578,2.874
								c0.689,0.669,0.957,1.059,0.955,1.47c-0.001,0.433-0.315,0.531-0.909,0.188c-0.555-0.321-1.097-0.839-1.435-1.241
								l-0.271,1.071c0.325,0.394,0.969,0.971,1.627,1.351c1.57,0.907,2.307,0.392,2.311-0.716c0.002-0.924-0.462-1.803-1.476-2.821
								c-0.746-0.754-1.058-1.118-1.057-1.537c0.001-0.337,0.27-0.484,0.832-0.159c0.556,0.321,0.97,0.751,1.193,1.005l0.291-1.03
								C45.776,34.005,45.304,33.585,44.653,33.209"/>
							<path fill="#FF1D25" d="M50.967,36.855c-1.34-0.774-2.173-0.402-2.176,0.72c-0.003,0.961,0.627,1.928,1.578,2.874
								c0.688,0.669,0.963,1.063,0.961,1.474c-0.001,0.433-0.321,0.527-0.915,0.185c-0.549-0.317-1.098-0.839-1.435-1.241
								l-0.266,1.074c0.319,0.39,0.97,0.971,1.621,1.347c1.577,0.911,2.308,0.392,2.311-0.716c0.003-0.924-0.462-1.802-1.476-2.821
								c-0.746-0.754-1.058-1.119-1.057-1.537c0.001-0.337,0.276-0.479,0.832-0.159c0.556,0.321,0.97,0.751,1.193,1.005l0.291-1.03
								C52.091,37.651,51.625,37.235,50.967,36.855"/>
							<path fill="#FF1D25" d="M54.799,38.811l-1.29-0.745l-0.02,6.941l1.29,0.745l0.008-2.832c0-0.11,0.014-0.228,0.046-0.297
								c0.096-0.216,0.308-0.351,0.646-0.156c0.485,0.28,0.669,0.82,0.667,1.444l-0.007,2.626l1.296,0.748l0.008-2.781
								c0.004-1.452-0.626-2.47-1.45-2.946c-0.236-0.137-0.473-0.207-0.671-0.204c-0.205,0-0.377,0.068-0.512,0.204l-0.019-0.011
								L54.799,38.811"/>
							<path fill="#FF1D25" d="M59.991,47.828c-0.287-0.166-0.51-0.485-0.509-0.867c0.002-0.565,0.532-0.442,1.208-0.052
								l-0.001,0.513c0,0.089-0.006,0.173-0.026,0.243C60.58,47.917,60.304,48.008,59.991,47.828 M60.13,43.939
								c-0.753-0.435-1.329-0.524-1.616-0.507l0.233,1.097c0.275-0.04,0.729,0.061,1.15,0.304c0.639,0.368,0.759,0.798,0.758,1.062
								v0.059c-1.475-0.852-2.447-0.825-2.451,0.415c-0.002,0.763,0.5,1.758,1.343,2.245c0.492,0.284,0.92,0.326,1.189,0.099
								l0.025,0.015l0.076,0.521l1.168,0.674c-0.05-0.294-0.068-0.737-0.067-1.192l0.005-1.673
								C61.947,45.929,61.516,44.74,60.13,43.939"/>
							<path fill="#FF1D25" d="M64.927,50.538c-0.536-0.31-0.879-1.015-0.877-1.83c0.002-0.756,0.304-1.184,0.898-0.841
								c0.396,0.229,0.676,0.721,0.751,1.154c0.019,0.1,0.019,0.209,0.019,0.29l-0.002,0.624c0,0.117-0.007,0.231-0.026,0.331
								C65.611,50.639,65.304,50.755,64.927,50.538 M67.025,45.87l-1.296-0.749l-0.007,2.583l-0.019-0.011
								c-0.185-0.43-0.573-0.867-1.09-1.166c-0.996-0.575-1.88-0.145-1.872,1.477c-0.004,1.482,0.785,2.908,1.768,3.476
								c0.536,0.31,1.048,0.333,1.305-0.048l0.026,0.015l0.049,0.719l1.149,0.664c-0.018-0.334-0.029-0.906-0.028-1.442
								L67.025,45.87"/>
							<path fill="#FF1D25" d="M69.038,51.052c0.04-0.374,0.258-0.821,0.801-0.508c0.6,0.347,0.732,1.026,0.731,1.393L69.038,51.052
								 M69.918,49.598c-1.443-0.833-2.104,0.129-2.108,1.34c-0.004,1.497,0.804,2.904,2.215,3.719
								c0.562,0.324,1.08,0.52,1.508,0.562l-0.169-1.104c-0.345-0.06-0.703-0.2-1.15-0.458c-0.6-0.347-1.135-0.95-1.166-1.584
								l2.675,1.544c0.02-0.091,0.046-0.304,0.046-0.561C71.772,51.874,71.265,50.376,69.918,49.598"/>
							<path fill="#FF1D25" d="M74.834,52.43c-0.409-0.236-0.914-0.234-1.126,0.349l-0.032-0.019l-0.049-0.91l-1.111-0.642
								c0.024,0.426,0.036,0.888,0.034,1.592l-0.009,3.206l1.29,0.745l0.007-2.421c0-0.117,0.007-0.231,0.026-0.315
								c0.084-0.415,0.411-0.52,0.89-0.244c0.14,0.081,0.242,0.163,0.344,0.236l0.004-1.394
								C75.013,52.54,74.949,52.496,74.834,52.43"/>
							<path fill="#FF1D25" d="M77.343,53.878c-1.028-0.593-1.694-0.302-1.696,0.593c-0.008,0.569,0.322,1.295,1.19,2.127
								c0.472,0.463,0.599,0.654,0.598,0.904c0,0.249-0.16,0.304-0.556,0.075c-0.377-0.218-0.874-0.696-1.11-0.994l-0.233,0.917
								c0.312,0.379,0.797,0.806,1.34,1.119c1.194,0.689,1.802,0.387,1.805-0.516c-0.011-0.697-0.329-1.352-1.119-2.124
								c-0.511-0.5-0.676-0.713-0.675-0.948c0-0.235,0.18-0.278,0.499-0.094c0.345,0.199,0.714,0.567,0.899,0.791l0.227-0.898
								C78.256,54.537,77.828,54.158,77.343,53.878"/>
							<polyline fill="#3FA9F5" points="33.289,44.624 32.784,44.332 32.772,48.727 34.904,49.958 34.906,49.481 33.278,48.542 
								33.289,44.624 							"/>
							<path fill="#3FA9F5" d="M36.584,50.568c-0.492-0.284-0.829-1-0.827-1.69c0.001-0.594,0.259-1.078,0.84-0.742
								c0.594,0.343,0.822,1.151,0.82,1.686C37.416,50.534,37.057,50.84,36.584,50.568 M36.612,47.718
								c-0.753-0.435-1.362-0.169-1.365,0.88c-0.003,0.998,0.576,1.964,1.311,2.388c0.658,0.379,1.368,0.275,1.371-0.892
								C37.932,49.141,37.403,48.175,36.612,47.718"/>
							<path fill="#3FA9F5" d="M39.785,49.55c-0.332-0.191-0.64-0.104-0.768,0.248l-0.013-0.007l-0.023-0.639l-0.435-0.25
								c0.012,0.301,0.018,0.62,0.017,0.994l-0.006,2.172l0.499,0.288l0.004-1.68c0-0.096,0.007-0.188,0.02-0.261
								c0.071-0.392,0.321-0.542,0.672-0.339c0.07,0.041,0.122,0.07,0.172,0.107l0.001-0.536L39.785,49.55"/>
							<path fill="#3FA9F5" d="M40.701,51.416c0.046-0.371,0.258-0.777,0.769-0.482c0.562,0.324,0.701,0.97,0.693,1.326
								L40.701,51.416 M41.509,50.545c-0.798-0.46-1.286,0-1.288,0.954c-0.003,0.954,0.5,1.891,1.342,2.377
								c0.441,0.255,0.748,0.314,0.92,0.326l-0.088-0.462c-0.186-0.019-0.403-0.071-0.76-0.277
								c-0.504-0.291-0.931-0.854-0.942-1.639l1.928,1.113c0.013-0.059,0.02-0.136,0.02-0.253
								C42.643,52.104,42.415,51.068,41.509,50.545"/>
							<path fill="#3FA9F5" d="M46.284,53.303c-0.261-0.151-0.441-0.174-0.601-0.126c-0.115,0.029-0.23,0.095-0.314,0.23
								l-0.013-0.007c-0.121-0.444-0.401-0.863-0.771-1.077c-0.459-0.265-0.716-0.134-0.87,0.079l-0.013-0.007l-0.024-0.528
								l-0.434-0.25c0.006,0.26,0.018,0.532,0.017,0.862l-0.006,2.304l0.492,0.284l0.005-1.9c0-0.096,0.007-0.194,0.039-0.257
								c0.078-0.242,0.314-0.392,0.621-0.214c0.376,0.217,0.567,0.688,0.565,1.186l-0.005,1.893l0.492,0.284l0.005-1.952
								c0-0.103,0.014-0.19,0.04-0.264c0.09-0.22,0.308-0.336,0.595-0.171c0.396,0.229,0.599,0.706,0.597,1.315l-0.005,1.783
								l0.485,0.28l0.005-1.857C47.19,54.098,46.655,53.517,46.284,53.303"/>
							<path fill="#3FA9F5" d="M49.7,55.341l-0.498-0.287l-0.009,3.155l0.498,0.287L49.7,55.341 M49.455,53.95
								c-0.185-0.107-0.313-0.019-0.314,0.179c0,0.198,0.121,0.422,0.299,0.525c0.198,0.114,0.319,0.03,0.32-0.168
								C49.76,54.281,49.633,54.053,49.455,53.95"/>
							<path fill="#3FA9F5" d="M51.786,59.323c-0.357-0.207-0.657-0.651-0.745-1.099c-0.02-0.084-0.025-0.169-0.025-0.25l0.001-0.55
								l0.039-0.206c0.091-0.381,0.411-0.468,0.755-0.269c0.524,0.302,0.816,1.015,0.814,1.638
								C52.624,59.314,52.316,59.629,51.786,59.323 M51.967,56.583c-0.447-0.258-0.78-0.229-0.979,0.045l-0.013-0.007l-0.024-0.558
								l-0.447-0.258c0.012,0.308,0.024,0.638,0.023,1.042l-0.01,3.419l0.492,0.284l0.004-1.717l0.013,0.007
								c0.165,0.411,0.484,0.779,0.841,0.985c0.651,0.376,1.259,0.162,1.263-0.969C53.133,57.904,52.637,56.971,51.967,56.583"/>
							<path fill="#3FA9F5" d="M54.591,58.099c-0.581-0.335-0.946-0.127-0.948,0.378c-0.001,0.382,0.228,0.816,0.732,1.319
								c0.357,0.36,0.503,0.592,0.502,0.864c0,0.264-0.173,0.37-0.531,0.163c-0.249-0.144-0.51-0.412-0.663-0.603l-0.123,0.355
								c0.198,0.246,0.472,0.5,0.771,0.673c0.646,0.373,1.023,0.194,1.025-0.364c0.001-0.47-0.247-0.885-0.719-1.363
								c-0.357-0.368-0.517-0.577-0.516-0.841c0-0.235,0.161-0.333,0.46-0.16c0.255,0.147,0.453,0.372,0.555,0.504l0.123-0.34
								C55.114,58.482,54.872,58.261,54.591,58.099"/>
							<path fill="#3FA9F5" d="M58.3,60.307l-0.498-0.288l-0.005,1.93c0,0.11-0.014,0.205-0.046,0.268
								c-0.09,0.205-0.321,0.344-0.659,0.148c-0.447-0.258-0.611-0.765-0.61-1.366l0.005-1.739l-0.498-0.288l-0.005,1.841
								c-0.003,1.101,0.514,1.686,0.941,1.932c0.491,0.284,0.786,0.116,0.915-0.06l0.006,0.003l0.03,0.532l0.44,0.254
								c-0.018-0.26-0.024-0.55-0.023-0.88L58.3,60.307"/>
							<path fill="#3FA9F5" d="M62.15,62.463c-0.262-0.151-0.435-0.17-0.601-0.126c-0.115,0.029-0.23,0.095-0.314,0.23l-0.013-0.007
								c-0.114-0.44-0.4-0.863-0.771-1.077c-0.459-0.266-0.709-0.131-0.87,0.078l-0.013-0.007l-0.024-0.528l-0.434-0.251
								c0.012,0.265,0.018,0.532,0.017,0.862l-0.006,2.304l0.492,0.284l0.005-1.9c0-0.096,0.013-0.191,0.039-0.257
								c0.084-0.238,0.314-0.392,0.621-0.214c0.377,0.217,0.574,0.691,0.572,1.19l-0.005,1.893l0.485,0.28l0.006-1.952
								c0-0.103,0.02-0.188,0.039-0.264c0.09-0.22,0.308-0.336,0.602-0.167c0.396,0.229,0.592,0.702,0.591,1.311l-0.005,1.783
								l0.485,0.28l0.005-1.856C63.056,63.258,62.521,62.677,62.15,62.463"/>
							<path fill="#3FA9F5" d="M66.177,67.618c-0.53-0.306-0.81-0.997-0.808-1.634c0.002-0.69,0.31-1.034,0.827-0.735
								c0.376,0.217,0.644,0.673,0.719,1.077l0.019,0.253l-0.001,0.543c0,0.095-0.007,0.172-0.02,0.238
								C66.823,67.733,66.516,67.813,66.177,67.618 M67.441,64.107l-0.499-0.288l-0.005,1.886l-0.007-0.004
								c-0.127-0.323-0.401-0.709-0.829-0.956c-0.664-0.383-1.24-0.077-1.237,0.976c-0.003,0.961,0.513,1.905,1.177,2.289
								c0.447,0.258,0.779,0.178,0.927-0.089l0.013,0.007l0.024,0.565l0.441,0.255c-0.012-0.228-0.018-0.547-0.017-0.826
								L67.441,64.107"/>
							<path fill="#3FA9F5" d="M69.401,69.516c-0.485-0.28-0.829-1-0.827-1.69c0.002-0.594,0.259-1.078,0.846-0.738
								c0.587,0.339,0.822,1.15,0.82,1.686C70.239,69.485,69.88,69.792,69.401,69.516 M69.435,66.669
								c-0.76-0.438-1.368-0.173-1.371,0.876c-0.003,0.998,0.577,1.964,1.317,2.392c0.658,0.379,1.368,0.275,1.371-0.891
								C70.755,68.093,70.22,67.123,69.435,66.669"/>
							<polyline fill="#3FA9F5" points="71.891,66.677 71.393,66.389 71.379,71.019 71.878,71.306 71.891,66.677 							"/>
							<path fill="#3FA9F5" d="M73.858,72.089c-0.492-0.284-0.829-1-0.827-1.689c0.001-0.594,0.259-1.078,0.846-0.739
								c0.587,0.339,0.822,1.151,0.82,1.686C74.695,72.059,74.337,72.366,73.858,72.089 M73.885,69.239
								c-0.753-0.435-1.362-0.169-1.365,0.88c-0.003,0.998,0.576,1.964,1.311,2.388c0.657,0.38,1.368,0.275,1.371-0.891
								C75.205,70.662,74.677,69.696,73.885,69.239"/>
							<path fill="#3FA9F5" d="M77.059,71.071c-0.333-0.192-0.64-0.104-0.769,0.247l-0.013-0.007l-0.024-0.638l-0.434-0.251
								c0.012,0.301,0.018,0.62,0.017,0.994l-0.006,2.172l0.504,0.291l0.005-1.68c0-0.096,0-0.191,0.014-0.264
								c0.071-0.393,0.321-0.542,0.672-0.339c0.07,0.041,0.122,0.07,0.173,0.106l0.001-0.535L77.059,71.071"/>
							<path fill="#3FA9F5" d="M79.733,72.616c-0.587-0.339-0.946-0.127-0.947,0.379c-0.001,0.381,0.228,0.815,0.725,1.315
								c0.363,0.364,0.503,0.592,0.502,0.863c0,0.264-0.167,0.374-0.524,0.167c-0.249-0.144-0.511-0.412-0.664-0.603l-0.123,0.355
								c0.191,0.242,0.472,0.5,0.772,0.673c0.638,0.369,1.022,0.194,1.024-0.364c0.001-0.47-0.247-0.885-0.719-1.363
								c-0.357-0.368-0.516-0.577-0.516-0.841c0.001-0.235,0.161-0.333,0.455-0.164c0.255,0.147,0.453,0.372,0.561,0.508
								l0.123-0.341C80.257,72.999,80.015,72.778,79.733,72.616"/>
							<path fill="#3FA9F5" d="M81.648,73.788l-0.504-0.291l-0.009,3.155l0.504,0.291L81.648,73.788 M81.396,72.393
								c-0.185-0.107-0.307-0.015-0.308,0.183c0,0.198,0.114,0.418,0.299,0.525c0.198,0.114,0.313,0.027,0.314-0.171
								C81.703,72.724,81.582,72.5,81.396,72.393"/>
							<path fill="#3FA9F5" d="M83.081,73.857l-0.492-0.115l-0.002,0.587l-0.421-0.243l-0.001,0.433l0.421,0.243l-0.005,1.725
								c-0.001,0.367,0.056,0.686,0.189,0.939c0.121,0.217,0.305,0.419,0.542,0.555c0.191,0.111,0.345,0.155,0.441,0.174
								l-0.018-0.451c-0.077-0.015-0.153-0.044-0.293-0.125c-0.275-0.159-0.37-0.441-0.369-0.83l0.005-1.703l0.708,0.409
								l0.001-0.433l-0.709-0.409L83.081,73.857"/>
							<path fill="#3FA9F5" d="M33.492,56.623c-0.249-0.144-0.466-0.438-0.465-0.812c0.001-0.583,0.556-0.393,1.075-0.093
								c0.03,0.017,0.06,0.035,0.089,0.052l-0.001,0.55l-0.02,0.165C34.086,56.709,33.855,56.833,33.492,56.623 M33.634,53.839
								c-0.345-0.199-0.677-0.281-0.908-0.252l0.114,0.448c0.192-0.036,0.46,0.031,0.722,0.182c0.004,0.002,0.009,0.004,0.013,0.007
								c0.55,0.317,0.605,0.822,0.604,1.077l0,0.066c-0.009-0.005-0.018-0.01-0.027-0.016c-1.042-0.602-1.621-0.518-1.624,0.238
								c-0.001,0.455,0.278,1.065,0.834,1.385c0.396,0.229,0.69,0.179,0.844,0.018L34.219,57l0.043,0.422l0.447,0.258
								c-0.031-0.231-0.037-0.499-0.036-0.777l0.003-1.174C34.679,55.097,34.477,54.326,33.634,53.839"/>
							<path fill="#3FA9F5" d="M38.505,56.652c-0.262-0.151-0.44-0.181-0.601-0.126c-0.115,0.029-0.23,0.094-0.314,0.23
								l-0.013-0.007c-0.12-0.444-0.4-0.863-0.771-1.077c-0.46-0.266-0.716-0.134-0.87,0.078l-0.02-0.011L35.9,55.207l-0.434-0.25
								c0.005,0.268,0.018,0.532,0.017,0.869l-0.006,2.297l0.485,0.28l0.005-1.893c0-0.096,0.013-0.198,0.045-0.253
								c0.077-0.242,0.314-0.391,0.621-0.214c0.377,0.217,0.567,0.68,0.566,1.187l-0.005,1.885l0.492,0.284l0.006-1.944
								c0-0.103,0.013-0.198,0.039-0.264c0.09-0.227,0.308-0.336,0.595-0.17c0.396,0.229,0.593,0.694,0.591,1.311l-0.005,1.775
								l0.492,0.284l0.005-1.849C39.411,57.447,38.869,56.862,38.505,56.652"/>
							<path fill="#3FA9F5" d="M40.5,59.142c0.039-0.382,0.258-0.777,0.768-0.482c0.562,0.324,0.695,0.967,0.687,1.323L40.5,59.142
								 M41.308,58.271c-0.798-0.461-1.292-0.003-1.294,0.95c-0.003,0.946,0.5,1.883,1.349,2.373
								c0.435,0.251,0.741,0.318,0.92,0.333l-0.095-0.466c-0.179-0.015-0.402-0.071-0.76-0.277
								c-0.504-0.292-0.925-0.857-0.936-1.635l1.928,1.113c0.013-0.059,0.02-0.143,0.02-0.26
								C42.442,59.822,42.208,58.79,41.308,58.271"/>
							<path fill="#3FA9F5" d="M43.666,58.934l-0.492-0.115l-0.002,0.587l-0.421-0.243l-0.001,0.44l0.421,0.243l-0.005,1.724
								c-0.001,0.367,0.056,0.679,0.196,0.936c0.114,0.22,0.305,0.419,0.535,0.552c0.192,0.11,0.345,0.162,0.441,0.181l-0.018-0.452
								c-0.077-0.015-0.153-0.052-0.287-0.129c-0.281-0.163-0.376-0.438-0.375-0.826l0.005-1.703l0.715,0.413l0.001-0.44
								l-0.715-0.413L43.666,58.934"/>
							<path fill="#3FA9F5" d="M45.509,63.099l-0.556-0.262c-0.065,0.44-0.221,1.048-0.35,1.371l0.352,0.151
								C45.115,64.15,45.366,63.568,45.509,63.099"/>
							<path fill="#3FA9F5" d="M48.593,62.477c-0.894-0.516-1.477-0.147-1.479,0.829c-0.003,0.961,0.538,1.92,1.362,2.396
								c0.37,0.214,0.658,0.27,0.792,0.274l-0.088-0.477c-0.14-0.015-0.326-0.042-0.607-0.204c-0.549-0.317-0.957-1-0.954-1.734
								c0.001-0.653,0.348-0.989,0.974-0.628c0.275,0.159,0.459,0.338,0.581,0.482l0.116-0.367
								C49.148,62.878,48.886,62.646,48.593,62.477"/>
							<path fill="#3FA9F5" d="M50.992,66.728c-0.485-0.28-0.829-1.007-0.827-1.697c0.002-0.587,0.259-1.071,0.846-0.731
								c0.587,0.339,0.822,1.15,0.82,1.686C51.829,66.689,51.47,67.004,50.992,66.728 M51.025,63.881
								c-0.76-0.439-1.368-0.173-1.371,0.876c-0.003,0.998,0.576,1.957,1.317,2.384c0.657,0.379,1.367,0.283,1.371-0.884
								C52.345,65.297,51.811,64.334,51.025,63.881"/>
							<path fill="#3FA9F5" d="M54.345,65.798c-0.453-0.262-0.773-0.152-0.908,0.056l-0.013-0.007l-0.031-0.54l-0.44-0.254
								c0.019,0.275,0.024,0.536,0.023,0.874l-0.007,2.296l0.498,0.287l0.005-1.893c0-0.096,0.007-0.194,0.033-0.246
								c0.09-0.271,0.347-0.388,0.672-0.2c0.473,0.273,0.631,0.783,0.63,1.296l-0.005,1.812l0.504,0.291l0.005-1.871
								C55.315,66.615,54.722,66.016,54.345,65.798"/>
							<path fill="#3FA9F5" d="M56.957,67.306c-0.581-0.335-0.946-0.135-0.948,0.379c-0.001,0.374,0.234,0.819,0.732,1.312
								c0.363,0.371,0.503,0.592,0.503,0.871c-0.001,0.264-0.174,0.37-0.531,0.163c-0.249-0.144-0.511-0.412-0.664-0.61
								l-0.116,0.367c0.191,0.242,0.466,0.489,0.766,0.662c0.645,0.373,1.022,0.201,1.024-0.364
								c0.001-0.462-0.247-0.885-0.719-1.356c-0.357-0.375-0.51-0.581-0.509-0.837c0-0.235,0.154-0.345,0.454-0.171
								c0.256,0.148,0.453,0.372,0.562,0.515l0.116-0.352C57.479,67.689,57.237,67.468,56.957,67.306"/>
							<path fill="#3FA9F5" d="M58.651,69.622c0.045-0.378,0.258-0.777,0.769-0.482c0.562,0.324,0.701,0.97,0.693,1.326
								L58.651,69.622 M59.459,68.751c-0.798-0.461-1.285,0-1.288,0.954c-0.002,0.946,0.5,1.883,1.343,2.37
								c0.44,0.254,0.747,0.321,0.92,0.333l-0.088-0.462c-0.186-0.019-0.403-0.071-0.761-0.277
								c-0.504-0.292-0.931-0.861-0.941-1.639l1.928,1.113c0.013-0.059,0.02-0.143,0.02-0.26
								C60.593,70.302,60.366,69.274,59.459,68.751"/>
							<path fill="#3FA9F5" d="M62.492,70.502c-0.894-0.516-1.477-0.147-1.479,0.829c-0.003,0.961,0.531,1.916,1.361,2.395
								c0.37,0.214,0.658,0.27,0.792,0.274l-0.088-0.477c-0.141-0.015-0.326-0.042-0.613-0.208c-0.543-0.313-0.95-0.997-0.948-1.73
								c0.001-0.653,0.342-0.993,0.974-0.628c0.274,0.159,0.459,0.339,0.581,0.482l0.11-0.37
								C63.047,70.903,62.786,70.671,62.492,70.502"/>
							<path fill="#3FA9F5" d="M64.365,70.885l-0.492-0.115l-0.001,0.586l-0.422-0.243l-0.001,0.44l0.421,0.243l-0.005,1.725
								c-0.001,0.366,0.056,0.679,0.189,0.932c0.121,0.224,0.305,0.418,0.542,0.555c0.192,0.11,0.345,0.163,0.441,0.181
								l-0.018-0.451c-0.077-0.015-0.153-0.052-0.294-0.133c-0.275-0.159-0.37-0.434-0.369-0.822l0.005-1.703l0.708,0.409
								l0.001-0.44l-0.709-0.409L64.365,70.885"/>
							<path fill="#3FA9F5" d="M65.917,73.817c0.04-0.381,0.258-0.777,0.769-0.482c0.562,0.325,0.694,0.967,0.687,1.323
								L65.917,73.817 M66.725,72.946c-0.798-0.46-1.286,0-1.288,0.954c-0.003,0.946,0.5,1.883,1.342,2.37
								c0.435,0.251,0.741,0.317,0.92,0.333l-0.088-0.462c-0.186-0.019-0.403-0.071-0.76-0.277
								c-0.504-0.292-0.931-0.861-0.942-1.639l1.928,1.113c0.013-0.059,0.02-0.143,0.021-0.26
								C67.859,74.498,67.625,73.466,66.725,72.946"/>
							<path fill="#3FA9F5" d="M69.083,73.609l-0.486-0.112l-0.002,0.587l-0.428-0.247l-0.001,0.44l0.428,0.247l-0.005,1.724
								c-0.001,0.367,0.056,0.679,0.189,0.932c0.121,0.224,0.306,0.419,0.536,0.552c0.198,0.114,0.345,0.163,0.447,0.185
								l-0.024-0.455c-0.077-0.015-0.153-0.052-0.287-0.129c-0.281-0.162-0.376-0.438-0.375-0.826l0.004-1.703l0.716,0.413
								l0.001-0.44l-0.715-0.413L69.083,73.609"/>
							<path fill="#3FA9F5" d="M72.656,76.429l-0.499-0.288l-0.005,1.93c0,0.117-0.02,0.209-0.045,0.268
								c-0.096,0.209-0.327,0.34-0.659,0.148c-0.454-0.262-0.612-0.765-0.61-1.359l0.005-1.747l-0.504-0.291l-0.005,1.849
								c-0.003,1.101,0.513,1.678,0.948,1.928c0.485,0.28,0.78,0.12,0.908-0.063l0.013,0.007l0.024,0.528l0.447,0.258
								c-0.019-0.253-0.024-0.543-0.023-0.88L72.656,76.429"/>
							<path fill="#3FA9F5" d="M74.706,77.554c-0.332-0.191-0.639-0.104-0.768,0.248l-0.019-0.011l-0.018-0.643l-0.44-0.254
								c0.018,0.305,0.023,0.631,0.022,1.005l-0.006,2.165l0.498,0.287l0.005-1.68c0-0.088,0.007-0.188,0.02-0.253
								c0.065-0.396,0.322-0.55,0.673-0.347c0.064,0.037,0.115,0.066,0.166,0.111l0.001-0.543L74.706,77.554"/>
							<path fill="#3FA9F5" d="M33.469,64.452c-0.249-0.144-0.465-0.438-0.464-0.819c0.001-0.576,0.556-0.386,1.075-0.086
								c0.029,0.018,0.06,0.035,0.089,0.053l-0.001,0.542l-0.02,0.172C34.064,64.538,33.833,64.662,33.469,64.452 M33.611,61.66
								c-0.345-0.199-0.677-0.28-0.907-0.245l0.114,0.448c0.192-0.036,0.46,0.031,0.722,0.182c0.004,0.002,0.009,0.005,0.013,0.007
								c0.55,0.317,0.605,0.822,0.604,1.076v0.066c-0.009-0.005-0.019-0.011-0.028-0.016c-1.042-0.602-1.621-0.525-1.623,0.231
								c-0.001,0.462,0.278,1.072,0.834,1.393c0.396,0.229,0.69,0.178,0.844,0.017l0.013,0.008l0.043,0.422l0.447,0.258
								c-0.031-0.231-0.037-0.506-0.036-0.777l0.003-1.182C34.657,62.925,34.454,62.147,33.611,61.66"/>
							<path fill="#3FA9F5" d="M36.572,66.207c-0.53-0.306-0.809-0.997-0.808-1.634c0.002-0.69,0.31-1.034,0.827-0.735
								c0.377,0.217,0.644,0.666,0.72,1.069l0.019,0.253l-0.001,0.55c0,0.088-0.007,0.165-0.02,0.239
								C37.211,66.311,36.904,66.398,36.572,66.207 M37.835,62.688l-0.498-0.287l-0.005,1.885l-0.013-0.007
								c-0.121-0.32-0.401-0.709-0.823-0.953c-0.664-0.383-1.24-0.077-1.237,0.977c-0.002,0.961,0.513,1.905,1.177,2.289
								c0.447,0.258,0.773,0.174,0.927-0.082l0.013,0.007l0.024,0.558l0.44,0.254c-0.012-0.22-0.018-0.547-0.017-0.826
								L37.835,62.688"/>
							<path fill="#3FA9F5" d="M39.166,64.934l-0.504-0.292l-0.009,3.155l0.504,0.291L39.166,64.934 M38.92,63.542
								c-0.191-0.11-0.313-0.012-0.314,0.179c0,0.198,0.114,0.418,0.299,0.525c0.198,0.114,0.313,0.026,0.314-0.172
								C39.22,63.877,39.099,63.646,38.92,63.542"/>
							<path fill="#3FA9F5" d="M41.252,68.923c-0.357-0.207-0.656-0.658-0.751-1.11c-0.012-0.081-0.019-0.157-0.018-0.246
								l0.001-0.55l0.032-0.209c0.091-0.374,0.417-0.465,0.755-0.27c0.53,0.306,0.816,1.015,0.814,1.639
								C42.083,68.904,41.776,69.226,41.252,68.923 M41.426,66.172c-0.447-0.258-0.779-0.229-0.979,0.045l-0.006-0.003l-0.03-0.562
								l-0.441-0.254c0.012,0.308,0.018,0.635,0.016,1.038l-0.009,3.419l0.498,0.288l0.005-1.717l0.013,0.007
								c0.159,0.408,0.477,0.775,0.841,0.985c0.645,0.373,1.253,0.158,1.256-0.972C42.593,67.493,42.097,66.56,41.426,66.172"/>
							<path fill="#3FA9F5" d="M43.718,67.562l-0.498-0.288l-0.009,3.155l0.498,0.288L43.718,67.562 M43.473,66.171
								c-0.185-0.107-0.313-0.012-0.313,0.179c-0.001,0.198,0.12,0.422,0.299,0.526c0.204,0.118,0.32,0.03,0.32-0.168
								S43.658,66.278,43.473,66.171"/>
							<path fill="#3FA9F5" d="M45.385,68.458c-0.587-0.339-0.953-0.131-0.954,0.375c-0.001,0.382,0.234,0.827,0.732,1.319
								c0.363,0.364,0.503,0.592,0.503,0.863c-0.001,0.271-0.174,0.37-0.532,0.164c-0.249-0.144-0.504-0.409-0.657-0.6l-0.123,0.362
								c0.191,0.236,0.472,0.493,0.772,0.667c0.639,0.369,1.023,0.201,1.024-0.364c0.001-0.469-0.247-0.885-0.719-1.363
								c-0.357-0.368-0.516-0.578-0.516-0.834c0.001-0.235,0.161-0.34,0.455-0.171c0.255,0.147,0.453,0.372,0.561,0.515l0.123-0.349
								C45.908,68.849,45.659,68.616,45.385,68.458"/>
							<path fill="#3FA9F5" d="M47.293,69.626l-0.498-0.288l-0.009,3.155l0.498,0.288L47.293,69.626 M47.048,68.235
								c-0.186-0.107-0.313-0.012-0.314,0.179c0,0.198,0.12,0.422,0.299,0.525c0.205,0.118,0.319,0.03,0.32-0.168
								C47.354,68.573,47.233,68.342,47.048,68.235"/>
							<path fill="#3FA9F5" d="M49.4,70.776c-0.894-0.516-1.477-0.14-1.479,0.829c-0.003,0.969,0.538,1.928,1.362,2.403
								c0.371,0.214,0.658,0.27,0.792,0.274l-0.088-0.485c-0.141-0.008-0.326-0.034-0.613-0.2c-0.543-0.313-0.95-0.997-0.948-1.73
								c0.002-0.653,0.342-1,0.974-0.636c0.274,0.159,0.459,0.346,0.58,0.49l0.117-0.374C49.956,71.186,49.694,70.946,49.4,70.776"
								/>
							<path fill="#3FA9F5" d="M51.169,71.864l-0.504-0.291l-0.009,3.155l0.504,0.291L51.169,71.864 M50.923,70.473
								c-0.191-0.111-0.313-0.012-0.313,0.179c0,0.198,0.114,0.418,0.299,0.525c0.198,0.114,0.313,0.027,0.314-0.171
								C51.223,70.808,51.102,70.576,50.923,70.473"/>
							<path fill="#3FA9F5" d="M53.365,73.066c-0.459-0.266-0.773-0.152-0.914,0.06l-0.007-0.004l-0.03-0.54l-0.441-0.254
								c0.019,0.275,0.018,0.532,0.017,0.87l-0.006,2.296l0.504,0.292l0.005-1.893c0-0.103,0.007-0.195,0.033-0.253
								c0.09-0.264,0.346-0.388,0.672-0.2c0.472,0.273,0.631,0.791,0.629,1.297l-0.005,1.82l0.498,0.288l0.005-1.878
								C54.329,73.887,53.742,73.283,53.365,73.066"/>
							<path fill="#3FA9F5" d="M56.256,77.513c-0.537-0.31-0.81-0.982-0.808-1.605c0.002-0.727,0.342-0.993,0.82-0.717
								c0.364,0.21,0.606,0.622,0.694,1.011c0.019,0.084,0.025,0.176,0.025,0.271l-0.001,0.565c0,0.096-0.007,0.209-0.04,0.286
								C56.844,77.632,56.569,77.694,56.256,77.513 M56.188,74.695c-0.632-0.365-1.24-0.113-1.243,0.958
								c-0.002,0.873,0.48,1.813,1.164,2.208c0.421,0.243,0.722,0.181,0.87-0.027l0.013,0.007l-0.001,0.345
								c-0.002,0.807-0.374,0.902-0.884,0.607c-0.345-0.199-0.625-0.479-0.804-0.722l-0.129,0.367c0.223,0.298,0.58,0.6,0.912,0.791
								c0.345,0.199,0.735,0.321,1.003,0.198c0.263-0.127,0.398-0.483,0.4-1.217l0.005-1.834c0.001-0.374,0.002-0.638,0.021-0.847
								l-0.44-0.255l-0.021,0.466l-0.013-0.007C56.921,75.398,56.667,74.972,56.188,74.695"/>
							<path fill="#3FA9F5" d="M59.797,78.117c0.046-0.37,0.258-0.777,0.769-0.482c0.562,0.325,0.7,0.97,0.693,1.326L59.797,78.117
								 M60.612,77.25c-0.805-0.465-1.292-0.004-1.295,0.95c-0.003,0.954,0.5,1.891,1.343,2.377c0.44,0.254,0.747,0.321,0.92,0.325
								l-0.088-0.462c-0.179-0.008-0.403-0.063-0.761-0.27c-0.504-0.291-0.931-0.861-0.935-1.643l1.928,1.113
								c0.007-0.062,0.013-0.139,0.014-0.256C61.739,78.805,61.512,77.77,60.612,77.25"/>
							<polyline fill="#3FA9F5" points="62.87,77.143 62.365,76.852 62.352,81.481 62.856,81.772 62.87,77.143 							"/>
							<path fill="#3FA9F5" d="M64.2,79.388L63.702,79.1l-0.009,3.155l0.498,0.288L64.2,79.388 M63.955,77.997
								c-0.186-0.107-0.313-0.012-0.314,0.179c-0.001,0.198,0.12,0.422,0.299,0.525c0.204,0.118,0.319,0.03,0.32-0.168
								S64.14,78.104,63.955,77.997"/>
							<path fill="#3FA9F5" d="M65.632,79.458l-0.486-0.111l-0.002,0.586l-0.428-0.247l-0.001,0.44l0.428,0.247l-0.005,1.717
								c-0.001,0.374,0.056,0.687,0.189,0.94c0.122,0.217,0.306,0.419,0.542,0.555c0.191,0.111,0.345,0.163,0.44,0.174l-0.024-0.448
								c-0.07-0.019-0.153-0.052-0.287-0.129c-0.274-0.159-0.376-0.438-0.375-0.834l0.005-1.695l0.715,0.413l0.001-0.44
								l-0.715-0.413L65.632,79.458"/>
							<path fill="#3FA9F5" d="M67.475,83.616l-0.556-0.255c-0.065,0.44-0.221,1.048-0.343,1.367l0.351,0.159
								C67.088,84.671,67.339,84.096,67.475,83.616"/>
							<path fill="#3FA9F5" d="M71.325,83.436c-0.587-0.339-0.953-0.131-0.954,0.375c-0.001,0.381,0.234,0.826,0.732,1.319
								c0.364,0.364,0.503,0.592,0.503,0.863c-0.001,0.271-0.174,0.37-0.525,0.167c-0.255-0.148-0.511-0.413-0.663-0.604
								l-0.123,0.362c0.191,0.235,0.472,0.493,0.772,0.667c0.638,0.369,1.022,0.201,1.024-0.364
								c0.001-0.469-0.247-0.884-0.719-1.363c-0.357-0.368-0.517-0.578-0.516-0.834c0-0.235,0.161-0.341,0.455-0.171
								c0.255,0.147,0.453,0.371,0.561,0.515l0.123-0.348C71.849,83.826,71.6,83.594,71.325,83.436"/>
							<path fill="#3FA9F5" d="M73.02,85.752c0.039-0.374,0.258-0.777,0.769-0.482c0.562,0.325,0.694,0.967,0.687,1.323
								L73.02,85.752 M73.828,84.881c-0.798-0.461-1.292-0.003-1.294,0.95c-0.002,0.954,0.5,1.891,1.349,2.381
								c0.434,0.251,0.741,0.317,0.914,0.322l-0.088-0.462c-0.179-0.008-0.403-0.063-0.76-0.27
								c-0.504-0.292-0.925-0.857-0.936-1.643l1.928,1.114c0.013-0.059,0.013-0.14,0.014-0.257
								C74.956,86.436,74.729,85.4,73.828,84.881"/>
							<path fill="#3FA9F5" d="M76.693,89.372c-0.536-0.31-0.809-0.996-0.808-1.634c0.002-0.69,0.304-1.038,0.821-0.739
								c0.376,0.217,0.65,0.669,0.719,1.07l0.025,0.256l-0.001,0.55c0,0.088-0.007,0.165-0.026,0.235
								C77.333,89.477,77.025,89.563,76.693,89.372 M77.95,85.85l-0.492-0.284l-0.005,1.885l-0.013-0.007
								c-0.127-0.323-0.401-0.709-0.829-0.957c-0.664-0.383-1.234-0.073-1.237,0.977c-0.003,0.961,0.513,1.905,1.176,2.289
								c0.447,0.258,0.78,0.178,0.927-0.082l0.02,0.011l0.018,0.554l0.447,0.258c-0.012-0.22-0.024-0.55-0.023-0.829L77.95,85.85"/>
							<path fill="#3FA9F5" d="M81.092,91.912c-0.53-0.306-0.81-0.997-0.808-1.634c0.002-0.69,0.31-1.034,0.827-0.735
								c0.376,0.217,0.644,0.666,0.72,1.07l0.018,0.253l-0.001,0.55c0,0.088,0,0.168-0.02,0.238
								C81.738,92.02,81.431,92.107,81.092,91.912 M82.355,88.394l-0.498-0.288l-0.005,1.885l-0.006-0.003
								c-0.127-0.323-0.401-0.71-0.829-0.957c-0.664-0.383-1.24-0.077-1.237,0.976c-0.003,0.961,0.513,1.905,1.177,2.289
								c0.447,0.258,0.779,0.178,0.927-0.082l0.013,0.007l0.024,0.558l0.441,0.254c-0.006-0.216-0.018-0.546-0.017-0.825
								L82.355,88.394"/>
							<path fill="#3FA9F5" d="M84.316,93.803c-0.485-0.28-0.829-1-0.827-1.689c0.001-0.595,0.259-1.071,0.846-0.731
								c0.587,0.339,0.822,1.143,0.82,1.679C85.154,93.772,84.795,94.079,84.316,93.803 M84.35,90.956
								c-0.753-0.435-1.362-0.162-1.365,0.888c-0.003,0.998,0.57,1.953,1.311,2.381c0.658,0.379,1.368,0.283,1.371-0.884
								C85.669,92.379,85.135,91.409,84.35,90.956"/>
							<path fill="#3FA9F5" d="M32.985,70.478c0.04-0.374,0.258-0.777,0.769-0.482c0.562,0.324,0.694,0.966,0.687,1.322
								L32.985,70.478 M33.794,69.606c-0.798-0.461-1.286,0-1.288,0.954c-0.003,0.954,0.5,1.891,1.342,2.377
								c0.434,0.251,0.741,0.311,0.92,0.326l-0.088-0.462c-0.186-0.019-0.403-0.071-0.76-0.277
								c-0.504-0.291-0.931-0.854-0.942-1.639l1.928,1.113c0.013-0.059,0.02-0.136,0.02-0.253
								C34.928,71.158,34.694,70.126,33.794,69.606"/>
							<path fill="#3FA9F5" d="M36.047,70.974l-0.498-0.287l-0.009,3.155l0.498,0.288L36.047,70.974 M35.802,69.583
								c-0.185-0.107-0.313-0.02-0.314,0.179s0.121,0.422,0.299,0.525c0.198,0.115,0.319,0.03,0.32-0.168
								C36.108,69.914,35.98,69.686,35.802,69.583"/>
							<path fill="#3FA9F5" d="M39.176,72.78l-0.498-0.288l-0.005,1.93c0,0.11-0.02,0.202-0.052,0.264
								c-0.09,0.205-0.321,0.344-0.659,0.148c-0.447-0.258-0.612-0.765-0.61-1.366l0.005-1.739l-0.498-0.288l-0.005,1.842
								c-0.003,1.101,0.513,1.685,0.947,1.936c0.485,0.28,0.78,0.113,0.909-0.063l0.013,0.007l0.023,0.528l0.441,0.254
								c-0.012-0.257-0.018-0.546-0.017-0.877L39.176,72.78"/>
							<path fill="#3FA9F5" d="M40.836,73.673c-0.581-0.336-0.946-0.127-0.948,0.379c-0.001,0.381,0.228,0.815,0.732,1.319
								c0.357,0.36,0.503,0.591,0.503,0.863c-0.001,0.265-0.174,0.37-0.531,0.164c-0.249-0.144-0.51-0.412-0.664-0.604l-0.123,0.356
								c0.197,0.246,0.472,0.5,0.772,0.673c0.645,0.372,1.022,0.193,1.024-0.364c0.001-0.469-0.247-0.884-0.718-1.363
								c-0.357-0.368-0.51-0.574-0.509-0.837c0-0.235,0.154-0.338,0.455-0.164c0.255,0.147,0.453,0.372,0.561,0.508l0.116-0.345
								C41.359,74.056,41.117,73.835,40.836,73.673"/>
							<path fill="#3FA9F5" d="M45.267,76.231c-0.255-0.147-0.434-0.17-0.601-0.126c-0.115,0.029-0.224,0.099-0.314,0.23
								l-0.006-0.003c-0.12-0.444-0.407-0.867-0.771-1.078c-0.459-0.265-0.716-0.134-0.87,0.079l-0.02-0.012l-0.018-0.524
								l-0.44-0.255c0.012,0.265,0.024,0.536,0.023,0.866l-0.007,2.304l0.485,0.28l0.005-1.9c0-0.095,0.013-0.19,0.039-0.256
								c0.084-0.238,0.314-0.392,0.621-0.215c0.383,0.221,0.574,0.691,0.572,1.19l-0.005,1.893l0.485,0.28l0.005-1.952
								c0-0.103,0.02-0.188,0.046-0.261c0.09-0.22,0.308-0.336,0.595-0.17c0.396,0.229,0.592,0.702,0.591,1.311l-0.005,1.783
								l0.492,0.284l0.005-1.849C46.179,77.03,45.637,76.445,45.267,76.231"/>
							<path fill="#3FA9F5" d="M48.119,80.744c-0.492-0.284-0.829-1-0.827-1.69c0.001-0.594,0.259-1.07,0.84-0.735
								c0.594,0.343,0.822,1.143,0.82,1.679C48.951,80.71,48.591,81.017,48.119,80.744 M48.146,77.894
								c-0.753-0.435-1.362-0.168-1.365,0.88c-0.003,0.998,0.576,1.964,1.311,2.388c0.658,0.379,1.368,0.275,1.371-0.892
								C49.466,79.317,48.938,78.351,48.146,77.894"/>
							<path fill="#3FA9F5" d="M51.209,82.499c-0.53-0.306-0.81-0.997-0.808-1.642c0.002-0.69,0.31-1.034,0.827-0.735
								c0.377,0.218,0.645,0.673,0.72,1.077l0.019,0.253l-0.001,0.543c0,0.095-0.007,0.172-0.02,0.238
								C51.855,82.607,51.542,82.69,51.209,82.499 M52.473,78.98l-0.498-0.287l-0.005,1.885l-0.013-0.007
								c-0.121-0.319-0.401-0.709-0.822-0.953c-0.664-0.383-1.24-0.077-1.237,0.977c-0.003,0.961,0.513,1.905,1.176,2.288
								c0.447,0.258,0.78,0.178,0.928-0.088l0.013,0.007l0.024,0.565l0.441,0.254c-0.012-0.227-0.018-0.546-0.017-0.825
								L52.473,78.98"/>
							<path fill="#3FA9F5" d="M55.107,81.222l-0.485-0.111l-0.002,0.587l-0.428-0.247l-0.001,0.433l0.428,0.247l-0.005,1.724
								c-0.001,0.367,0.056,0.687,0.189,0.94c0.115,0.213,0.306,0.419,0.536,0.552c0.191,0.11,0.345,0.155,0.447,0.177l-0.024-0.455
								c-0.077-0.016-0.153-0.045-0.288-0.123c-0.281-0.162-0.376-0.444-0.375-0.833l0.005-1.702l0.715,0.413l0.001-0.433
								l-0.715-0.413L55.107,81.222"/>
							<path fill="#3FA9F5" d="M56.66,84.146c0.046-0.37,0.258-0.777,0.769-0.481c0.562,0.324,0.701,0.97,0.693,1.326L56.66,84.146
								 M57.474,83.279c-0.805-0.464-1.292-0.003-1.294,0.95c-0.002,0.954,0.5,1.891,1.343,2.377c0.44,0.254,0.747,0.313,0.92,0.325
								l-0.088-0.462c-0.179-0.015-0.402-0.07-0.76-0.277c-0.505-0.292-0.932-0.854-0.936-1.635l1.929,1.113
								c0.006-0.062,0.013-0.139,0.013-0.257C58.602,84.827,58.375,83.799,57.474,83.279"/>
							<path fill="#3FA9F5" d="M62.244,86.033c-0.262-0.151-0.435-0.17-0.601-0.126c-0.115,0.029-0.23,0.095-0.314,0.23
								l-0.013-0.007c-0.114-0.44-0.4-0.863-0.771-1.077c-0.46-0.266-0.716-0.134-0.87,0.078l-0.013-0.007l-0.024-0.528l-0.434-0.25
								c0.012,0.264,0.018,0.532,0.017,0.862l-0.006,2.304l0.492,0.284l0.005-1.9c0-0.095,0.013-0.19,0.039-0.256
								c0.078-0.242,0.314-0.392,0.621-0.215c0.377,0.217,0.574,0.691,0.572,1.19l-0.005,1.893l0.485,0.28l0.005-1.952
								c0-0.103,0.02-0.188,0.039-0.264c0.09-0.22,0.308-0.337,0.595-0.171c0.402,0.232,0.599,0.706,0.597,1.315l-0.005,1.783
								l0.485,0.28l0.005-1.849C63.149,86.828,62.614,86.247,62.244,86.033"/>
							<path fill="#3FA9F5" d="M65.217,90.594c-0.357-0.207-0.656-0.651-0.745-1.099c-0.019-0.084-0.025-0.169-0.025-0.25
								l0.001-0.55l0.032-0.209c0.097-0.377,0.417-0.465,0.755-0.27c0.53,0.306,0.816,1.015,0.814,1.639
								C66.048,90.582,65.741,90.896,65.217,90.594 M65.391,87.851c-0.447-0.258-0.773-0.226-0.972,0.049l-0.013-0.008l-0.03-0.561
								l-0.441-0.254c0.012,0.308,0.024,0.639,0.023,1.042l-0.01,3.419l0.492,0.284l0.005-1.717l0.013,0.007
								c0.165,0.412,0.477,0.775,0.841,0.985c0.645,0.373,1.259,0.162,1.263-0.968C66.564,89.174,66.062,88.237,65.391,87.851"/>
							<path fill="#3FA9F5" d="M68.32,92.408c-0.485-0.28-0.829-1-0.827-1.689c0.002-0.594,0.259-1.071,0.846-0.731
								c0.587,0.339,0.822,1.143,0.82,1.679C69.158,92.377,68.799,92.685,68.32,92.408 M68.354,89.561
								c-0.76-0.438-1.368-0.172-1.371,0.876c-0.003,0.998,0.576,1.964,1.311,2.388c0.664,0.383,1.374,0.279,1.377-0.888
								C69.673,90.984,69.139,90.015,68.354,89.561"/>
							<path fill="#3FA9F5" d="M71.52,91.39c-0.332-0.192-0.639-0.104-0.761,0.251l-0.019-0.011l-0.024-0.638l-0.435-0.251
								c0.019,0.305,0.018,0.62,0.017,0.994l-0.006,2.172l0.504,0.292l0.004-1.68c0-0.096,0.007-0.188,0.014-0.264
								c0.072-0.385,0.321-0.542,0.672-0.339c0.07,0.041,0.121,0.07,0.172,0.107l0.001-0.536L71.52,91.39"/>
							<path fill="#3FA9F5" d="M33.184,77.155l-0.498-0.288l-0.009,3.155l0.498,0.288L33.184,77.155 M32.938,75.771
								c-0.191-0.111-0.313-0.02-0.313,0.179c-0.001,0.191,0.12,0.422,0.299,0.525c0.198,0.115,0.32,0.023,0.32-0.167
								C33.245,76.102,33.117,75.874,32.938,75.771"/>
							<path fill="#3FA9F5" d="M35.38,78.364c-0.453-0.262-0.773-0.152-0.908,0.064l-0.013-0.008l-0.03-0.546l-0.441-0.254
								c0.019,0.275,0.024,0.543,0.023,0.873l-0.006,2.297l0.498,0.287l0.005-1.893c0-0.095,0.013-0.191,0.032-0.253
								c0.09-0.264,0.347-0.38,0.672-0.192c0.473,0.272,0.631,0.783,0.63,1.297l-0.005,1.812l0.504,0.292l0.005-1.872
								C36.35,79.181,35.757,78.582,35.38,78.364"/>
							<path fill="#3FA9F5" d="M38.438,80.129c-0.894-0.516-1.477-0.146-1.479,0.829c-0.003,0.961,0.532,1.917,1.361,2.396
								c0.371,0.214,0.658,0.27,0.786,0.27l-0.081-0.474c-0.141-0.015-0.326-0.041-0.614-0.207c-0.543-0.313-0.95-0.997-0.948-1.73
								c0.002-0.646,0.342-0.993,0.974-0.628c0.274,0.159,0.459,0.339,0.574,0.479l0.116-0.367
								C38.994,80.531,38.732,80.299,38.438,80.129"/>
							<path fill="#3FA9F5" d="M40.201,81.206l-0.498-0.288l-0.009,3.155l0.498,0.288L40.201,81.206 M39.955,79.822
								c-0.185-0.107-0.313-0.02-0.313,0.179c0,0.191,0.12,0.422,0.299,0.526c0.205,0.118,0.32,0.022,0.32-0.168
								C40.262,80.153,40.14,79.929,39.955,79.822"/>
							<path fill="#3FA9F5" d="M42.14,85.096c-0.53-0.306-0.809-0.996-0.807-1.635c0.002-0.689,0.31-1.034,0.827-0.735
								c0.377,0.218,0.644,0.673,0.72,1.077l0.018,0.245L42.896,84.6c0,0.095-0.006,0.165-0.02,0.238
								C42.786,85.212,42.479,85.292,42.14,85.096 M43.403,81.585l-0.498-0.288L42.9,83.176l-0.006-0.003
								c-0.127-0.316-0.401-0.702-0.829-0.949c-0.664-0.383-1.241-0.077-1.237,0.976c-0.003,0.954,0.513,1.898,1.177,2.281
								c0.447,0.258,0.78,0.186,0.928-0.082l0.013,0.007l0.024,0.558l0.44,0.254c-0.012-0.22-0.018-0.54-0.017-0.825L43.403,81.585"
								/>
							<path fill="#3FA9F5" d="M44.734,83.823l-0.498-0.287l-0.009,3.155l0.498,0.287L44.734,83.823 M44.488,82.44
								c-0.191-0.111-0.313-0.02-0.314,0.178c0,0.191,0.114,0.419,0.299,0.526c0.198,0.114,0.319,0.022,0.32-0.168
								C44.794,82.771,44.667,82.543,44.488,82.44"/>
							<path fill="#3FA9F5" d="M46.673,87.714c-0.536-0.31-0.81-0.997-0.808-1.635c0.002-0.69,0.31-1.034,0.821-0.739
								c0.376,0.217,0.65,0.677,0.719,1.077l0.025,0.25l-0.001,0.55c0,0.095-0.006,0.165-0.026,0.234
								C47.312,87.826,47.005,87.905,46.673,87.714 M47.93,84.199l-0.492-0.284l-0.005,1.878l-0.013-0.007
								c-0.126-0.315-0.401-0.702-0.829-0.949c-0.664-0.383-1.234-0.073-1.237,0.977c-0.002,0.954,0.513,1.898,1.177,2.281
								c0.447,0.258,0.779,0.186,0.927-0.082l0.02,0.011l0.018,0.554l0.447,0.258c-0.012-0.22-0.024-0.543-0.023-0.829L47.93,84.199
								"/>
							<path fill="#3FA9F5" d="M51.061,87.477l-0.504-0.291l-0.006,1.929c0,0.117-0.013,0.212-0.045,0.268
								c-0.09,0.212-0.32,0.344-0.659,0.148c-0.447-0.258-0.612-0.765-0.61-1.359l0.005-1.746l-0.498-0.287l-0.005,1.849
								c-0.003,1.1,0.513,1.678,0.947,1.929c0.485,0.28,0.78,0.119,0.908-0.064l0.006,0.004l0.031,0.532l0.44,0.254
								c-0.012-0.25-0.018-0.54-0.017-0.877L51.061,87.477"/>
							<path fill="#3FA9F5" d="M53.257,88.686c-0.454-0.262-0.773-0.152-0.908,0.064l-0.013-0.007l-0.03-0.547l-0.441-0.254
								c0.019,0.275,0.024,0.543,0.023,0.873l-0.006,2.297l0.498,0.288l0.005-1.894c0-0.095,0.013-0.19,0.033-0.253
								c0.091-0.263,0.347-0.38,0.672-0.192c0.472,0.273,0.637,0.787,0.636,1.301l-0.005,1.812l0.498,0.288l0.005-1.871
								C54.227,89.503,53.634,88.903,53.257,88.686"/>
							<path fill="#3FA9F5" d="M55.641,89.364l-0.486-0.104l-0.001,0.58l-0.428-0.247l-0.001,0.44l0.428,0.247l-0.005,1.724
								c-0.001,0.367,0.056,0.679,0.189,0.932c0.121,0.225,0.306,0.419,0.536,0.552c0.198,0.114,0.351,0.166,0.447,0.185
								l-0.024-0.455c-0.07-0.012-0.153-0.052-0.287-0.129c-0.281-0.162-0.376-0.438-0.375-0.827l0.004-1.702l0.715,0.413
								l0.001-0.44l-0.715-0.413L55.641,89.364"/>
							<path fill="#3FA9F5" d="M60.414,92.877l-0.498-0.287l-0.005,1.929c0,0.117-0.014,0.213-0.045,0.268
								c-0.09,0.212-0.321,0.344-0.66,0.148c-0.447-0.258-0.611-0.765-0.61-1.359l0.005-1.747l-0.499-0.288l-0.005,1.849
								c-0.003,1.1,0.513,1.678,0.941,1.925c0.491,0.284,0.786,0.123,0.908-0.063l0.013,0.007l0.03,0.532l0.441,0.254
								c-0.019-0.253-0.024-0.543-0.023-0.881L60.414,92.877"/>
							<path fill="#3FA9F5" d="M61.853,92.951l-0.492-0.107l-0.001,0.58l-0.421-0.243l-0.001,0.44l0.421,0.243l-0.005,1.724
								c-0.001,0.367,0.056,0.679,0.189,0.933c0.121,0.224,0.306,0.419,0.542,0.555c0.191,0.111,0.345,0.163,0.441,0.181
								l-0.024-0.455c-0.07-0.011-0.147-0.048-0.287-0.129c-0.275-0.159-0.37-0.434-0.369-0.823l0.004-1.702l0.709,0.409l0.001-0.44
								l-0.708-0.409L61.853,92.951"/>
							<polyline fill="#3FA9F5" points="64.83,93.957 64.332,93.669 64.319,98.292 64.817,98.58 64.83,93.957 							"/>
							<path fill="#3FA9F5" d="M66.408,99.145c-0.249-0.144-0.465-0.438-0.464-0.812c0.002-0.583,0.556-0.393,1.075-0.093
								c0.03,0.017,0.06,0.035,0.089,0.053l-0.001,0.55l-0.02,0.172C67.002,99.231,66.772,99.355,66.408,99.145 M66.55,96.361
								c-0.345-0.199-0.677-0.28-0.908-0.252l0.114,0.448c0.192-0.037,0.46,0.03,0.722,0.182c0.004,0.002,0.008,0.005,0.013,0.007
								c0.55,0.317,0.611,0.826,0.611,1.08l0,0.066c-0.009-0.006-0.018-0.011-0.027-0.017c-1.049-0.605-1.627-0.521-1.629,0.235
								c-0.001,0.455,0.278,1.064,0.834,1.386c0.396,0.229,0.69,0.178,0.844,0.017l0.02,0.011l0.037,0.418l0.447,0.258
								c-0.025-0.228-0.037-0.499-0.036-0.778l0.003-1.174C67.595,97.619,67.393,96.848,66.55,96.361"/>
							<path fill="#3FA9F5" d="M69.658,100.992c-0.364-0.21-0.657-0.651-0.745-1.099l-0.025-0.228l0.001-0.558
								c0-0.095,0.014-0.162,0.033-0.224c0.104-0.374,0.424-0.461,0.755-0.269c0.536,0.31,0.822,1.018,0.82,1.649
								C70.496,100.983,70.188,101.298,69.658,100.992 M68.897,96.305l-0.492-0.284l-0.011,3.808
								c-0.001,0.286-0.015,0.594-0.022,0.803l0.422,0.243l0.033-0.496l0.013,0.007c0.203,0.529,0.522,0.89,0.918,1.118
								c0.613,0.354,1.24,0.158,1.243-0.972c0.003-0.954-0.474-1.876-1.157-2.271c-0.44-0.254-0.761-0.218-0.94,0.031l-0.013-0.007
								L68.897,96.305"/>
							<path fill="#3FA9F5" d="M72.767,102.817c-0.492-0.284-0.829-1-0.827-1.697c0.002-0.594,0.259-1.071,0.84-0.735
								c0.594,0.343,0.822,1.151,0.82,1.687C73.599,102.775,73.24,103.089,72.767,102.817 M72.794,99.966
								c-0.753-0.435-1.362-0.169-1.365,0.88c-0.003,0.998,0.57,1.954,1.311,2.381c0.658,0.379,1.368,0.282,1.371-0.884
								C74.114,101.382,73.586,100.423,72.794,99.966"/>
							<path fill="#3FA9F5" d="M75.968,101.798c-0.333-0.192-0.639-0.104-0.769,0.248l-0.019-0.011l-0.018-0.642l-0.44-0.254
								c0.019,0.305,0.024,0.631,0.023,1.005l-0.006,2.165l0.498,0.288l0.005-1.68c0-0.088,0.007-0.188,0.02-0.253
								c0.065-0.396,0.321-0.549,0.672-0.346c0.064,0.037,0.115,0.066,0.166,0.11l0.001-0.543L75.968,101.798"/>
							<path fill="#3FA9F5" d="M76.883,103.665c0.04-0.374,0.258-0.777,0.769-0.482c0.562,0.325,0.694,0.967,0.687,1.322
								L76.883,103.665 M77.691,102.793c-0.798-0.46-1.286,0-1.289,0.954c-0.002,0.946,0.5,1.883,1.343,2.37
								c0.434,0.25,0.741,0.317,0.92,0.333l-0.088-0.462c-0.186-0.019-0.403-0.071-0.76-0.277c-0.504-0.291-0.932-0.861-0.942-1.639
								l1.928,1.113c0.013-0.059,0.02-0.143,0.02-0.26C78.825,104.345,78.591,103.313,77.691,102.793"/>
						</g>
					</g>
				</g>
			</g>
		</g>
	</g>
</g>
</svg>
